<svg width="5541" height="3585" viewBox="0 0 5541 3585" fill="none" xmlns="http://www.w3.org/2000/svg" xmlns:xlink="http://www.w3.org/1999/xlink">
<g id="WEBSITE - ANN First Floor">
<rect id="ANN First Floor" width="5540.62" height="3585.01" fill="url(#pattern0_34_2)"/>
<g id="Color Coded">
<path id="conference_room" d="M900.936 2878.69H948.249H984.108V2866.99H987.345L985.851 2801.5L1007.27 2806.98L1026.19 2819.18L1039.89 2837.85L1044.87 2852.3V2866.99L1077.49 2867.49V2882.18H1360.63V2885.17H1747.6L1750.59 3338.38H1894.03V3403.88H1864.89L1863.9 3424.55H1867.13V3430.27L1750.59 3432.02H1692.32V3404.13H1543.16V3421.56H1529.71L1529.76 3495.3C1482.3 3486.44 1465.32 3472.6 1459.24 3425.54L1454.05 3451.44L1436.94 3477.04L1423.53 3487.3L1404.81 3493.33L1390.13 3493.33L1392 3421.56H1374.57V3404.37H1225.91V3424.55H1229.39V3430.52L1049.85 3431.02V3424.55L1055.83 3421.56V3404.13H1023.7V3361.29H900.936V2878.69Z" fill="#3C74E9" fill-opacity="0.33"/>
<path id="media_center" d="M2002.51 527.207L2058.43 536.172L2094.04 312.801H2262.38V251.293H2436.69V277.938H2535.8V251.293H2709.87V277.938H2812.46V251.293H2982.55H3001.97V239.838L3150.88 237.099V201L3699 205.5L3703.96 1240.15H3658.39L3645.18 1958.36L2011.12 1966.54L2002.51 742.5H1946C1948.83 702.381 1964.04 691.693 2002.51 682.5C1964.34 674.982 1951.77 662.137 1946 624.5H2002.51V527.207Z" fill="#F77C00" fill-opacity="0.42"/>
<path id="faculty_offices" d="M2592.07 1399.94L2608.24 1398.03L2618.95 1395.17L2632.64 1385.13L2640.85 1377.73L2648.57 1363.39L2651.8 1344.35H2805.91V1590.56H2594.27L2592.07 1399.94Z" fill="#F5768F" fill-opacity="0.53"/>
<g id="editing">
<path id="Rectangle 150" d="M2002.54 1344.35L2519.02 1340.88C2525.12 1378.18 2535.77 1393.17 2576.35 1402.14V1601.04H2351.59V1764.41H2245.71V1601.04H2002.54V1344.35Z" fill="#F77C00" fill-opacity="0.42"/>
</g>
<path id="tech_ops_it" d="M2487.11 1596.57H2805.8L2805.8 1706.89L2791.06 1708.88L2778.11 1715.11L2766.16 1725.07L2756.7 1741.26L2750.97 1755.7V1774.38L2752.21 1793.55L2756.7 1808.74L2766.91 1821.19L2776.37 1829.16L2787.33 1834.89L2805.8 1839.62L2805.8 1981.57H2487.11V1767.42H2373.13V1596.57H2487.11Z" fill="#0EFF0A" fill-opacity="0.4"/>
<g id="studios">
<path id="Rectangle 153" d="M3516.82 268.869H3622.12V327.59H3648.71V507.106H3291.99V490.461H3270.72V404.113H3291.99H3328.68V268.869H3516.82Z" fill="#474343" fill-opacity="0.84"/>
<path id="Rectangle 154" d="M1644.48 239.277H2063.58V297.189H2090.05L2085.42 325.047L2105.77 328.426L2093.51 390.93H2080.26L2056.99 522.943L1995.6 513.697L1612.85 446.711L1601.9 442.726L1607.37 416.33L1617.83 352.581L1620.39 323.198H1644.48V268.91V247.495V239.277Z" fill="#474343" fill-opacity="0.84"/>
<path id="Rectangle 155" d="M3558.8 1317.07H3632.76V1326.28H3647.7V1748.62V1817.85V1858.19V1957.55H3387.7V2041.49C3348.93 2032.24 3335.55 2020.67 3328.4 1987.63C3320.57 2022.36 3306.45 2034.43 3275.11 2038.6V1977.68H3267.6V1957.55H2956.42L2962.4 1720.48V1514.54L3035.11 1471.71L3112.31 1426.89L3281.89 1326.28H3464.67H3558.8V1317.07Z" fill="#474343" fill-opacity="0.84"/>
<path id="Rectangle 156" d="M3197.91 257.078H3304.59V373.588H3269.19V387.236H3197.91H3167.03V317.734H3197.91V257.078Z" fill="#474343" fill-opacity="0.84"/>
</g>
<path id="tech_infrastructure" d="M3268.06 528.953H3690.89L3698.86 1239.16H3656.03V1304.15H3277.02L3268.06 528.953Z" fill="#F5EE76" fill-opacity="0.53"/>
<g id="bathrooms">
<path id="Rectangle 158" d="M2022.19 2159.73H2362.15V2271.61H2381.57L2381.57 2202.85C2420.24 2210.88 2435.11 2223.43 2439.71 2271.61H2477.4V2381.44H2022.19V2159.73Z" fill="#76DBF5" fill-opacity="0.53"/>
<path id="Rectangle 159" d="M2782.79 2267.26H2821.63C2823.82 2225.75 2838.54 2214.17 2876.08 2203.31V2267.26H2901.08V2160.43H3235.51L3237.75 2380.31H2782.79V2267.26Z" fill="#76DBF5" fill-opacity="0.53"/>
</g>
<g id="external">
<path id="Rectangle 160" d="M2658.65 2164.22H2680.32V2133.84H2770.96V2149.28H2712C2716.92 2187.73 2729.36 2200.81 2773.5 2208L2774.94 2381.37H2662.46L2658.65 2164.22Z" fill="#176610" fill-opacity="0.53"/>
<path id="Rectangle 161" d="M1080.48 2134.12H1427.37L1421.46 2855.04H1080.48V2134.12Z" fill="#176610" fill-opacity="0.53"/>
<path id="Rectangle 162" d="M1422.64 2471.72H1436.71V2439.01H1633.8V2393H1745.58V2270.36H1852.56V2422.53V2589.37H1422.64V2471.72Z" fill="#176610" fill-opacity="0.53"/>
</g>
</g>
</g>
<defs>
<pattern id="pattern0_34_2" patternContentUnits="objectBoundingBox" width="1" height="1">
<use xlink:href="#image0_34_2" transform="scale(0.000294118 0.000454558)"/>
</pattern>
</defs>
</svg>
