<svg width="5541" height="3586" viewBox="0 0 5541 3586" fill="none" xmlns="http://www.w3.org/2000/svg" xmlns:xlink="http://www.w3.org/1999/xlink">
<g id="ANN Lower Level">
<rect id="ANN Lower Level_2" width="5540.29" height="3585.01" fill="url(#pattern0_13_393)"/>
<g id="Color Coded">
<g id="bathrooms">
<path id="Rectangle 158" d="M1852.85 2157.81H2199.04V2269.46H2323.6V2379.95H1852.85V2157.81Z" fill="#76DBF5" fill-opacity="0.53"/>
<path id="Rectangle 159" d="M2500.22 2263.85H2627.15V2154.11H3091.97V2379.4H2500.22V2263.85Z" fill="#76DBF5" fill-opacity="0.53"/>
</g>
<g id="tech_ops_facilities" >
<path id="Rectangle 160" d="M1682.66 2127.52H1835.09V2393.71H1624.65V2323.14L1645.5 2317.87L1664.33 2305.56L1680.15 2283.46L1682.66 2260.61V2127.52Z" fill="#1E3CA8" fill-opacity="0.42"/>
<path id="Rectangle 161" d="M680.426 1048.5H947.993V1682.05H894.13L898.901 1709.68L911.457 1726.25L927.78 1740.06L947.993 1744.33V2029.35H753.502V1402.81H680.426V1048.5Z" fill="#1E3CA8" fill-opacity="0.42"/>
<rect id="Rectangle 162" x="678.09" y="903.273" width="112.714" height="145.228" fill="#1E3CA8" fill-opacity="0.42"/>
</g>
<g id="tech_infrastructure">
<path id="Rectangle 163" d="M2021.57 1321.62L2252.6 1282.78L2331.96 1724.79L2150.4 1754.88V1786.53L2138.84 1813.65L2121.77 1830.22L2102.68 1837L2093.14 1783.76L2077.57 1754.88H2021.57V1321.62Z" fill="#F5EE76" fill-opacity="0.53"/>
<path id="Rectangle 164" d="M2019.82 224.818H2967.06V558.043L2180.53 563.394V634.886L2162.2 633.379L2151.4 627.352L2139.09 617.056L2130.56 606.258L2124.03 593.702L2120.01 570.348L2115.99 594.957L2099.67 618.814L2081.59 630.868H2063.51L2061.25 561.809H2028.35V549.505H2019.82V224.818Z" fill="#F5EE76" fill-opacity="0.53"/>
</g>
<g id="classrooms">
<path id="Rectangle 165" d="M797.311 274.678H1770.56L1773.96 1038.69H1680.8V1104.73L1665.73 1102.72L1653.42 1096.95L1634.84 1084.64L1621.53 1061.54V1038.69L1032.15 1042.71V1063.3L1016.33 1086.9L995.488 1101.97L975.398 1104.73V1038.69L801.372 1035.93L797.311 274.678Z" fill="#8F76F5" fill-opacity="0.53"/>
<path id="Rectangle 166" d="M749.441 2049.37H1407.23V2061.43H1358.34L1360.36 2081.77L1371.7 2100.6L1377.75 2107.38L1385.81 2112.4L1395.39 2117.17L1407.23 2120.19V2507.91L1396.9 2509.16L1387.83 2514.19L1378.76 2519.71L1371.95 2527.24L1365.15 2534.53L1361.87 2544.07L1358.6 2555.87V2567.42H1419.58V2600.82H1358.6L1361.87 2622.67L1367.42 2634.22L1374.72 2645.02L1387.83 2653.81L1400.43 2658.83L1412.78 2660.33L1409 3119.37L699.617 3115.1V2883.33H749.441L749.441 2049.37Z" fill="#8F76F5" fill-opacity="0.53"/>
<path id="Rectangle 167" d="M2274.64 1026.34L2431.84 973.605L3367.52 968.081L3378.32 1031.61L3347.68 1037.39L3452.9 1634.55L3485.54 1627.52L3490.57 1771.92L3325.83 1827.16L3319.55 2014H3131.21L3087.77 1910.29L3202.53 1864.58L3163.86 1757.85L2607.38 1950.46L2437.1 1953.64L2422.8 1863.58L2340.18 1872.62V1851.77L2350.48 1832.69L2364.29 1816.37L2390.91 1806.57H2364.29L2342.69 1795.77L2325.62 1776.94L2320.85 1757.85L2403.97 1740.53L2312.81 1247.58L2232.37 1256.8L2230.29 1247.58L2232.37 1234.72L2236.76 1223.97L2242.5 1213.43L2260.33 1197.86L2279.99 1190.57H2256.56L2232.37 1181.31L2223.23 1172.29L2215.26 1159.58L2211.21 1143.74L2290.05 1128.36L2274.64 1026.34Z" fill="#8F76F5" fill-opacity="0.53"/>
</g>
<g id="tech_ops_it">
<path id="Rectangle 168" d="M1803.06 570.098H2062.75V630.618H2083.6L2103.69 616.053L2116.49 591.946L2120.51 570.098L2124.03 591.946L2136.33 616.053L2151.4 627.605L2165.46 633.381H2181.03V570.098L3541.46 584.638L3542.61 785.309H3574.25V822.474H3552.4L3550.14 937.954H3541.46H2083.6V1038.19H1951.51V1108.5L1932.92 1105.99L1921.62 1099.96L1909.82 1090.67L1896.51 1070.33L1891.24 1047.23L1887.97 1068.57L1873.91 1090.67L1852.31 1104.23L1831.97 1108.5L1834.48 1038.19H1803.06V937.954V570.098Z" fill="#0EFF0A" fill-opacity="0.4"/>
<path id="Rectangle 169" d="M2977.75 296.374H3049.37V190.15L3532.65 170.627L3534.79 463.621H3574.22V584.635L3542.32 588.93H3532.53V584.635L3141.53 580.141V563.567H2970.02L2977.75 296.374Z" fill="#0EFF0A" fill-opacity="0.4"/>
<path id="Rectangle 170" d="M1846.42 1352.09L2006.5 1326.97V1496.73L1984.91 1498.74L1965.07 1512.3L1951.76 1529.63L1949.5 1541.43V1552.23H2006.5V1566.55H1846.42V1352.09Z" fill="#0EFF0A" fill-opacity="0.4"/>
</g>
<g id="storage">
<path id="Rectangle 157" d="M1184.68 3280.06H1483.94V3343.53L1503.04 3342.55L1522.13 3334.99L1531.43 3325.47L1544.74 3304.96L1547.51 3282.74L1552.28 3304.96L1562.83 3328.88L1575.9 3337.92L1589.21 3342.55L1605.04 3343.53V3287.14H1617.35V3322.29H1853.78V3387.23H1721.12V3446.06H1184.68V3280.06Z" fill="#FF13B0" fill-opacity="0.73"/>
<path id="Rectangle 171" d="M1803.06 170.627H1910.32V228.07H2019.82V563.567H1803.06V170.627Z" fill="#FF13B0" fill-opacity="0.73"/>
<rect id="Rectangle 172" x="1415.61" y="170.817" width="368.143" height="103.964" fill="#FF13B0" fill-opacity="0.73"/>
<path id="Rectangle 507" d="M1624.66 2433.86H1631.01V2404.96H1829.96V2433.86V2527.27H1624.66H1684.77C1675.5 2485.35 1661.15 2473.67 1624.66 2467.04V2433.86Z" fill="#FF13B0" fill-opacity="0.73"/>
<path id="Rectangle 506" d="M2244.51 1908.11L2398.14 1883.95L2412.13 1961.52H2386.47V2030.76C2343.97 2024.93 2337.3 2008.31 2329.59 1975.39C2320.88 2008.34 2312.48 2023.66 2274.91 2030.76V1961.52H2244.51V1908.11Z" fill="#FF13B0" fill-opacity="0.73"/>
</g>
</g>
</g>
<defs>
<pattern id="pattern0_13_393" patternContentUnits="objectBoundingBox" width="1" height="1">
<use xlink:href="#image0_13_393" transform="scale(0.000294128 0.000454545)"/>
</pattern>
</defs>
</svg>  