<svg width="5541" height="3585" viewBox="0 0 5541 3585" fill="none" xmlns="http://www.w3.org/2000/svg">
<g id="ANN Second Floor">
<g id="Group">
<g id="Color Coded">
<path id="admin_offices" d="M1712.76 299.204L1934.28 296.766V232.408H1903.33V292.134H1877.74V232.408V172.193H1937.69L2009.1 92.4766H2216.48L2296.41 170.974H2355.14L2356.36 230.701H2442.87V743.131H2407.78V804.808L2387.06 801.883L2377.07 796.276L2365.86 787.5L2356.6 778.724L2351.48 764.828L2347.83 743.131H1937.21L1934.28 761.171L1927.7 775.311L1919.42 784.574L1907.23 794.082L1894.56 800.176H1877.74V743.131H1824.86V786.525H1709.6V743.131H1694.24L1691.32 454.006H1740.06V383.309H1725.68V352.592H1711.06L1695.22 351.373L1683.76 347.96L1679.13 343.816L1671.58 336.746L1658.18 323.095L1653.55 310.418V299.204H1712.76Z" fill="#25FEC4" fill-opacity="0.65"/>
<g id="classrooms">
<path id="Rectangle 149" d="M1353.97 2120.69H1655.89L1756.77 2120.69V2164.9H1842.3V2602.28H1796.55V2598.19H1755.63V2647.81H1654.91L1655.89 2644.12H1449.24V2647.07H1350.07V2637.98H1408.79V2634.42C1399.59 2598.51 1386.53 2586.47 1350.07 2577.89L1353.97 2120.69Z" fill="#8F76F5" fill-opacity="0.53"/>
<path id="Rectangle 150" d="M1160.97 2995.38V2886.81H1227V2817.54H1239.43V2867.16L1249.91 2867.65L1260.39 2863.97L1269.65 2860.77L1275.74 2856.35L1288.17 2842.35L1296.45 2829.09L1298.16 2812.88H1335.69V2820.56H1534.77V2867.16H1612.26L1604.95 3431.62H1492.86V3437.03H1501.88V3446.6H1304.98V3437.03H1310.1V3432.36H1284.27V3369.48H1181.92V3351.55H1161.94V3266.8H1104.68V2995.38H1160.97Z" fill="#8F76F5" fill-opacity="0.53"/>
<path id="Rectangle 151" d="M1629.32 2820.24H1962.92V2814.1H1999.47L2004.1 2831.54L2008.73 2841.61L2014.33 2849.72L2022.13 2856.35L2029.93 2861.26L2036.51 2863.96L2045.28 2867.65L2060.88 2869.86V2820.56H2085.24V3316.17H2112.89V3462.08H1635.65V3446.85H1629.32V2820.24Z" fill="#8F76F5" fill-opacity="0.53"/>
</g>
<path id="tech_ops_facilities" d="M1254.95 351.07L1269.82 352.181V322.95H1297.11V293.72H1327.57V284.141H1473.29H1696.26V295.44H1653.62V309.195L1658.49 322.459L1667.26 331.793L1676.03 340.636L1684.08 347.514L1696.26 351.198H1711.12V383.376H1690.41V449.942H1682.86L1686.27 743.473L1327.81 740.642L1324.4 723.694L1318.07 708.465L1310.03 699.622L1298.57 691.025L1287.12 687.095L1271.77 684.638V740.642H1257.15L1254.95 351.07Z" fill="#1E3CA8" fill-opacity="0.42"/>
<path id="media_center" d="M2567.74 207.463L3457.91 218.516H3481.55V177.987H3585.6V117.07H3859.98V177.987H3979.63V300.066V412.811H4022.52V513.029V532.925V577.384V708.797V729.184V776.1V952.709V1048.26V1189.74V1242.31H4004H4013.99L3988.3 1945.17H2827.26L2819.95 1918.53L2812.4 1907.73L2794.36 1896.43H2773.41L2771.95 1945.17H2532.42V1565.31H2288.97V1245.5H2424.21V1098.86H2577.97L2544.59 730.658H2461.74V259.782H2567.74V207.463Z" fill="#F77C00" fill-opacity="0.42"/>
<path id="conference_room" d="M3452.31 247.003H3489.59V179.454H3587.31V119.766H3856.33V179.454H3978.31V413.885H3445.92L3452.31 247.003Z" fill="#3C74E9" fill-opacity="0.33"/>
<g id="faculty_offices">
<rect id="Rectangle 156" x="2297.21" y="1260.73" width="808.743" height="303.568" fill="#F5768F" fill-opacity="0.53"/>
<rect id="Rectangle 157" x="3652.74" y="413.891" width="370.625" height="831.809" fill="#F5768F" fill-opacity="0.53"/>
</g>
<g id="bathrooms">
<path id="Rectangle 158" d="M2297.18 2150.66H2650.48V2261.66H2666.91V2188.73H2675.44L2686.41 2192.66L2695.42 2197.08L2706.63 2205.19L2713.21 2211.82L2719.06 2222.38L2723.93 2235.64L2724.91 2260.94H2767.94L2770.48 2372.67H2643.24H2297.18V2150.66Z" fill="#76DBF5" fill-opacity="0.53"/>
<path id="Rectangle 159" d="M3130.34 2151.8H3536.92V2372.36H3130.34H3022.26V2260.64H3060.51V2234.37L3064.81 2223.32L3069.11 2215.46L3074.37 2209.32L3079.87 2203.18L3087.28 2196.06L3097.08 2190.9L3104.73 2188.69H3116.44V2260.64H3130.34V2151.8Z" fill="#76DBF5" fill-opacity="0.53"/>
</g>
<g id="tech_ops_it">
<path id="Rectangle 160" d="M2911.52 1573.32H3106.65V1828.8H2978.74L2976.95 1814.18L2972.36 1804.51L2964.7 1794.14L2958.07 1789.53L2951.43 1783.55L2941.22 1778.71L2928.97 1775.48L2921.57 1774.1V1828.8H2911.52V1573.32Z" fill="#0EFF0A" fill-opacity="0.4"/>
<rect id="Rectangle 161" x="3683.45" y="1247.77" width="294.862" height="272.453" fill="#0EFF0A" fill-opacity="0.4"/>
<rect id="Rectangle 162" x="2725.17" y="1573.32" width="186.348" height="126.467" fill="#0EFF0A" fill-opacity="0.4"/>
</g>
<path id="external" d="M2725.17 1713.66H2906.66V1954.11H2833.66L2831.66 1941.17L2827.91 1930.52L2823.41 1922.15L2815.91 1913.78L2805.41 1907.18L2799.67 1904.14H2791.92H2779.42L2777.42 1954.11H2765.67V1911.24H2725.17V1713.66Z" fill="#176610" fill-opacity="0.53"/>
<rect id="editing" x="3296" y="1520" width="681.813" height="424.948" fill="#F77C00" fill-opacity="0.42"/>
</g>
</g>
</g>
</svg>
