<svg width="5541" height="3586" viewBox="0 0 5541 3586" fill="none" xmlns="http://www.w3.org/2000/svg">
<g id="ANN Third Floor">
<g id="Color Coded">
<g id="faculty_offices">
<path id="Rectangle 155" d="M944.22 2180.37H1220.93V2879.03H965.842V2822.2V2755.97H950.294V2696.42H944.22V2627.97H919.684V2476.98H944.22V2350.96H920.412V2199.97H944.22V2180.37Z" fill="#F5768F" fill-opacity="0.53"/>
<path id="Rectangle 156" d="M1118.74 3129.87H1787L1787 3141.2H1827.92L1827.92 3313.74H2038.06V3372.5H1874.44V3431.76H1824.45H1118.74V3129.87Z" fill="#F5768F" fill-opacity="0.53"/>
<path id="Rectangle 157" d="M1372.13 2608.54H1545.13V2645.11H1609.99V2721.44H1387.11V2686.08H1372.13V2608.54Z" fill="#F5768F" fill-opacity="0.53"/>
</g>
<g id="centers">
<path id="Center" d="M2966.83 233.626L3010.24 235.82V242.16H3105.83V319.218H3230.68V198.023H3329.44V143.156H3595.24V198.023H3676.69V268.74H3706.68V474.796H3749.84V563.315H3770.33V708.651H3743.99V755.715L2966.83 763.03V233.626Z" fill="#6A0F0F" fill-opacity="0.37"/>
<path id="Rectangle 159" d="M2032.68 1180.27H2406.46V1407.54H2086.77L2085.8 1397.78L2082.38 1389L2076.29 1377.05L2068.97 1368.28L2059.95 1360.47L2050.44 1355.84L2039.46 1353.16H2032.68V1180.27Z" fill="#6A0F0F" fill-opacity="0.37"/>
</g>
<g id="conference_room">
<path id="Rectangle 160" d="M967.918 1831.06H1010.84V1786.19L1160.07 1799.12V1833.74H1228.35V2052.72L1205.19 2061.75L1190.56 2073.21L1179.09 2093.93L1174.71 2114.66H1224.7V2163.29H949.873V2115.88H988.889V2076.86H925V1927.38H967.918V1831.06Z" fill="#3C74E9" fill-opacity="0.33"/>
<path id="Rectangle 161" d="M2032.68 991.761L2046.05 988.591L2057.75 984.201L2070.43 974.447L2076.77 966.888L2082.63 956.402L2086.77 944.21L2087.75 931.023H2221.95V1164.9H2032.68V991.761Z" fill="#3C74E9" fill-opacity="0.33"/>
<path id="Rectangle 162" d="M1372.13 2124.66H1608.04L1613.4 2600.64H1372.13V2554.88H1438.56V2542.69L1433.2 2531.23L1424.42 2518.79L1416.37 2510.99L1405.4 2502.94L1395.16 2498.06L1382.72 2494.4H1372.13V2124.66Z" fill="#3C74E9" fill-opacity="0.33"/>
</g>
<g id="classrooms">
<path id="Rectangle 163" d="M2289.51 235.816H2953.24L2950.07 750.449H2281.7V490.17H2262.43L2250.49 486.23L2238.78 479.583L2230 473.674L2226.35 465.549L2219.52 450.53L2218.05 434.773L2281.7 430.48V280.09H2289.51V235.816Z" fill="#8F76F5" fill-opacity="0.53"/>
<path id="Rectangle 164" d="M2424.85 931.023H3505.61L3537.46 1433.05L3525.33 1694.99L3502.09 1958.66H2505.66V1915.2H2462.19V1568.52H2419.07L2424.85 931.023Z" fill="#8F76F5" fill-opacity="0.53"/>
</g>
<path id="tech_infrastructure" d="M2236.55 931.016H2286.29V984.537L2298.24 983.275L2312.39 978.985L2319.71 975.452L2327.28 968.638L2335.57 960.562L2342.16 949.205L2344.6 941.886L2345.46 931.016H2404.63V1164.98H2236.55V931.016Z" fill="#F5EE76" fill-opacity="0.53"/>
<g id="bathrooms">
<path id="Rectangle 166" d="M2042.81 2159.52C2042.81 2157.31 2044.6 2155.52 2046.81 2155.52H2380.63C2382.79 2155.52 2384.56 2157.24 2384.62 2159.4L2387.63 2262.38C2387.7 2264.54 2389.47 2266.26 2391.63 2266.26H2401.9C2404.1 2266.26 2405.9 2264.47 2405.9 2262.26V2199.83C2405.9 2197.3 2408.22 2195.41 2410.69 2195.98C2446.63 2204.32 2462 2221.07 2464.32 2262.4C2464.45 2264.55 2466.21 2266.26 2468.36 2266.26H2497.01C2499.22 2266.26 2501.01 2268.05 2501.01 2270.26V2380.17C2501.01 2382.38 2499.22 2384.17 2497.01 2384.17H2390.05H2046.81C2044.6 2384.17 2042.81 2382.38 2042.81 2380.17V2159.52Z" fill="#76DBF5" fill-opacity="0.53"/>
<path id="Rectangle 167" d="M2809.83 2157.37H3275.87L3272.64 2375.45L2795.93 2379.24H2691.07V2264.87H2728.38L2730.82 2238.29L2732.53 2230.73L2736.18 2222.2L2744.47 2214.39L2751.55 2208.3L2758.62 2202.93L2766.91 2198.54L2773.98 2195.37H2788.12V2264.87H2809.83V2157.37Z" fill="#76DBF5" fill-opacity="0.53"/>
</g>
<path id="digital_lounge" d="M1082.59 257.032H1231.09V303.852H1312.29V257.032H1465.19V303.852H1611.75V398.467H2103.35L2097.26 241.426H2275.03V433.826H2218.94V448.701L2225.52 461.869L2229.67 470.891L2238.69 477.719L2251.62 485.035L2264.05 489.424H2281.12V766.122H2019.71V836.183H2008.74L2000.2 833.5L1990.69 828.623L1982.89 824.234L1971.92 813.748L1968.26 805.945L1964.11 794.728L1960.46 787.656L1957.29 798.629L1950.21 811.066L1939.24 822.771L1927.05 830.33L1916.07 833.5L1898.27 836.183V766.122H966.414V372.375H1012.84V332.871H1042.11V303.852H1082.59V257.032Z" fill="#F35DF6" fill-opacity="0.33"/>
<path id="tech_ops_it" d="M1609.18 172.172L1685.88 169.002L1712.7 146.567L1707.58 139.252L1747.82 102.186L1756.35 107.063V97.7969H1957.04L2004.11 139.252L2035.08 176.317L2096.41 180.707V393.206H1609.18V172.172Z" fill="#0EFF0A" fill-opacity="0.4"/>
</g>
</g>
</svg>
