<svg width="5536" height="3582" viewBox="0 0 5536 3582" fill="none" xmlns="http://www.w3.org/2000/svg">
<g id="ASC Second Floor">
<g id="colorcoded">
<path id="conference_room" d="M1354.94 2121.64L1358.85 2110L1360.77 2105.06L1365.8 2096.59L1371.79 2090.01L1376.83 2084.12L1384.74 2079.89L1392.17 2076.83L1406.79 2073.54V2111.41H1456.17V2119.41L1833.21 2121.64V2221.74H1894.75C1890.97 2252.5 1877.75 2264.59 1833.21 2264.45V2505.48H1354.94V2121.64Z" fill="#3C74E9" fill-opacity="0.33"/>
<g id="bathrooms">
<path id="Rectangle 207" d="M2584.47 1991.54H2710.7V1995.24H2731.72V1976.99H2844.79V2086.71V2096.06H2863.66V2170.76H2766.14V2216.41C2736.01 2210.94 2724.76 2202.78 2724.06 2170.76H2584.47V1991.54Z" fill="#76DBF5" fill-opacity="0.53"/>
<path id="Rectangle 208" d="M2673.86 1490H2680.88V1438.34L2700.97 1441.85L2711.62 1452.64L2719.85 1470.72V1490H2870.91V1685.49H2688.14V1558.07H2673.86V1490Z" fill="#76DBF5" fill-opacity="0.53"/>
<path id="Rectangle 209" d="M1531.41 1934.95H1725.44V2062.45H1568.33V2046.26H1531.41L1531.41 1934.95Z" fill="#76DBF5" fill-opacity="0.53"/>
<path id="Rectangle 210" d="M1544.76 1615.77H1632.64V1592.74H1638.36C1637.73 1561.67 1648.72 1551.66 1681.55 1542.47L1683.3 1592.74H1733.96V1724.93H1540.04L1544.76 1615.77Z" fill="#76DBF5" fill-opacity="0.53"/>
</g>
<path id="external" d="M1745.42 1537.31H1833.54L1834.7 1679.48H1796.01V1721.75H1737.22V1585.52H1709.61L1718.25 1581.25L1729.93 1572.71L1740.85 1561.42L1745.42 1551.62V1537.31Z" fill="#176610" fill-opacity="0.53"/>
<g id="classrooms">
<path id="Rectangle 202" d="M477.207 1537.43L655.598 1537.43V1551.87L812.599 1551.17V1558.33H908.562V1580.39C926.876 1577.64 935.589 1579.22 947.435 1589.4C956.365 1599.95 959.931 1606.73 959.387 1622.89H1113.49L1101.88 2016.75H960.014C958.662 2053.5 947.811 2065.03 908.934 2068.2V2093.3H812.342V2101.59H653.776V2113.39H477.207V1537.43Z" fill="#8F76F5" fill-opacity="0.53"/>
<path id="Rectangle 203" d="M1866.78 955.578H2277.74V1094.67H2336.01L2334.56 1106.69L2329.96 1118.71L2321.97 1128.52L2310.1 1138.33L2296.3 1143.48L2283.47 1142.25L2296.3 1144.95L2306.95 1147.9L2318.09 1155.99L2324.14 1161.88L2332.13 1174.39L2336.01 1193.03L2280.49 1191.41V1345.94H2275.84V1360.15L2274.92 1390.75L2275.84 1403.57H2263.78L2255.07 1399.41L2248.34 1395.49L2241.38 1389.36L2236.22 1382.44L2231.9 1373.08L2228.51 1361.42H2003.09L2001.24 1372.96L1995.67 1384.98L1984.41 1396.87L1968.98 1403.92L1957.84 1405.19V1370.54V1355.18V1348.37H1928.52V1205.3H1833.86V1098.84H1757.35V1148.39H1737.25V1035.3H1757.35V1080.44H1866.78V955.578Z" fill="#8F76F5" fill-opacity="0.53"/>
<path id="Rectangle 204" d="M4392.84 1236.69H4872.77V1577.82H4433.99L4432.05 1561.75L4420.43 1546.69L4416.08 1542.17L4406.15 1537.15H4395.01L4392.84 1236.69Z" fill="#8F76F5" fill-opacity="0.53"/>
<path id="Rectangle 205" d="M4463.7 1627.5L4473.87 1620.73L4480.89 1612.69L4486.46 1603.15L4490.81 1589.16H4687H4929.43V1823.75H4444.58V1629.76H4453.78L4463.7 1627.5Z" fill="#8F76F5" fill-opacity="0.53"/>
<path id="Rectangle 206" d="M4395.38 2115.99L4408.93 2114.98L4419.59 2110.46L4427.82 2102.43L4435.08 2096.15L4439.68 2086.37L4442.34 2073.31H4874.71V2415.45H4398.28L4395.38 2115.99Z" fill="#8F76F5" fill-opacity="0.53"/>
<path id="Rectangle 216" d="M3120.12 951.228L3358.03 950.5V1310.91H3353.92V1331.77H3345.44V1385.86L3337.46 1386.83L3331.16 1384.64L3324.15 1381.49L3316.4 1377.13L3309.62 1366.45L3307.45 1354.81V1331.77H3124.23V1311.16H3120.12V951.228Z" fill="#8F76F5" fill-opacity="0.53"/>
</g>
<g id="faculty_offices">
<path id="Rectangle 199" d="M673.584 2129.67H680.546V2124.24H863.539V2131.05H918.309V2122.39H938.616V2120.43H976.902V2069.82C1001.51 2075.32 1011.53 2083.55 1018.56 2112.9C1024.91 2083.34 1034 2074.73 1058.68 2071.49V2119.6H1097.35V2503.4H1004.99V2505.48H725.569V2503.4H677.413L673.584 2129.67Z" fill="#F5768F" fill-opacity="0.53"/>
<path id="Rectangle 201" d="M1326.19 1143.6H1547.36V1384.4L1523.94 1388.75L1509.23 1399.04L1499.76 1413.59L1498.51 1431.41H1323.29L1326.19 1143.6Z" fill="#F5768F" fill-opacity="0.53"/>
<path id="Rectangle 211" d="M673.012 1143.56L1098.78 1132.29L1095.62 1439.5H1120.91V1431.18H1227.32V1479.34V1480.61H1294.31C1294.31 1480.61 1288.66 1505.11 1277.22 1513.41C1270.68 1518.15 1253.54 1520.57 1253.54 1520.57V1537.55H1091.51H917.381V1542.75H861.354V1525.88H680.662V1519.53H673.012L673.012 1143.56Z" fill="#F5768F" fill-opacity="0.53"/>
<path id="Rectangle 212" d="M1557.52 1149.03L1759.86 1149.72V1107.8L1765.98 1102.26H1837.23V1337.17H1819.31V1387.1H1604.58L1602.77 1373.78L1598.48 1361.31L1590.01 1351.37L1581.65 1345.14L1571.79 1340.86L1557.52 1339.29V1149.03Z" fill="#F5768F" fill-opacity="0.53"/>
<path id="Rectangle 219" d="M3827.62 2073.31H4389.63V2413.94H3859.25V2259.06H3827.62V2073.31Z" fill="#F5768F" fill-opacity="0.53"/>
</g>
<g id="centers">
<path id="Rectangle 213" d="M1849.48 1484.25H2185.07V1476.81H2209.28H2235.67V1484.25H2431.56V1431.41L2452.62 1436.72L2468.36 1446.62L2476.59 1465.46V1484.25H2527.92V1473.67L2577.08 1472.94V1484.25L2567.15 2159.24L2282.4 2164.56L2279.74 2185.32L2276.59 2195.71L2268.85 2204.88L2260.61 2211.41L2252.38 2214.79L2233.98 2217.44V2176.39H2182.65V2164.56H2130.35V2182.67L2119.45 2200.78L2104.2 2210.92L2089.19 2212.61V2164.56H2034.95V2215.51L2014.85 2212.85L2000.32 2202.23L1988.94 2184.12V2163.08H1906.38V2053.96H1849.48V1979.82H1895.48V1667.34H1849.48V1484.25Z" fill="#6A0F0F" fill-opacity="0.37"/>
<path id="Rectangle 220" d="M3122 2321H3134.5V2270C3162.41 2274.12 3172.56 2283.77 3176 2321H3354V2703H3122V2321Z" fill="#6A0F0F" fill-opacity="0.37"/>
<path id="Rectangle 217" d="M4025.8 1233.45H4392.81V1534.67H4378.04L4366.66 1536.93L4357.22 1544.21L4350.68 1551.74L4343.9 1563.79L4341.73 1580.86H4025.8V1233.45Z" fill="#6A0F0F" fill-opacity="0.37"/>
<path id="Rectangle 218" d="M3911 1710.69H4097.64V1686.42H4102.37V1710.69L4102.37 1727.75H4117.9L4126.21 1724.58L4135.48 1716.78L4141.65 1709.71L4145.45 1703.37L4145.93 1693.87V1685.95H4281.96V1969.83H4099.85V1947.16H3911V1710.69Z" fill="#6A0F0F" fill-opacity="0.37"/>
<path id="Rectangle 224" d="M4450.81 1823.85H4908.35V1885.85H4923.6V2068.52H4493.9L4492.45 2056.79L4489.3 2044.74L4481.56 2037.72L4474.53 2029.68L4461.7 2023.16L4450.81 2020.9V1823.85Z" fill="#6A0F0F" fill-opacity="0.37"/>
</g>
<g id="storage">
<path id="Rectangle 214" d="M1736.99 1934.95H1837.54V2067.13H1825.76V2025.72C1802.12 2029.51 1794.7 2038.41 1792.57 2067.13H1736.99V1934.95Z" fill="#FF13B0" fill-opacity="0.73"/>
<path id="Rectangle 221" d="M1314.7 1438.11H1433.52V1519.18H1403.07V1579.01H1392.18L1382.53 1576.6L1365.94 1566.22L1359.01 1556.81L1356.53 1544.75V1526.58H1314.7V1438.11Z" fill="#FF13B0" fill-opacity="0.73"/>
<path id="Rectangle 222" d="M1719.19 1430.71C1747.32 1434.18 1759.22 1441.79 1767.47 1474.37C1776.28 1442.78 1787.37 1432.85 1816.83 1427.48V1486.26H1834.65V1529.34H1703.38V1483.14H1721.75L1719.19 1430.71Z" fill="#FF13B0" fill-opacity="0.73"/>
<path id="Rectangle 223" d="M2580.65 1489.27L2585.51 1489.5V1439.26C2617.67 1445.04 2625.43 1456.8 2625.35 1489.27L2636.55 1489.5V1531.19H2670.72V1632.06H2683.56V1677.17H2633.16C2626.93 1649.21 2618.03 1638.31 2585.85 1633.23L2587.13 1672.31H2579.62L2580.65 1489.27Z" fill="#FF13B0" fill-opacity="0.73"/>
</g>
</g>
</g>
</svg>
