<svg width="5541" height="3585" viewBox="0 0 5541 3585" fill="none" xmlns="http://www.w3.org/2000/svg">
<g id="ASC First Floor">
<g id="colors">
<path id="Rectangle 271" d="M4161.97 2290.62L4171.45 2306L4172.95 2331.32L4161.97 2311.78V2290.62Z" fill="white"/>
<path id="Rectangle 273" d="M4157.23 2155.95H4172.96V2302.3L4157.23 2275.59V2155.95Z" fill="white"/>
<g id="bathrooms">
<path id="Rectangle 175" d="M2736.89 2021.48H3049.82V2220.96H2936.35V2276.5C2902.68 2274.23 2893.84 2261.49 2890.4 2224.36H2733.9L2736.89 2021.48Z" fill="#76DBF5" fill-opacity="0.53"/>
<path id="Rectangle 178" d="M2836 1476H3059V1690H2836V1476Z" fill="#76DBF5" fill-opacity="0.53"/>
</g>
<g id="faculty_offices">
<path id="Rectangle 171" d="M676.146 2129.79H892.007L942.929 2171.52L995.342 2201.33L1035.58 2215.49V2235.11H1059.18L1075.82 2240.08L1092.96 2257.22L1098.93 2273.61V2282.56H1140.66V2275.85V2322.3V2599.76H676.146V2129.79Z" fill="#F5768F" fill-opacity="0.53"/>
<path id="Rectangle 170" d="M678.631 1121.77H916.848H1137.43V1394.52H1095.45V1452.15L1085.02 1472.27L1073.59 1481.71L1053.47 1488.17V1432.52L933.988 1430.78V1440.1V1449.41L932.001 1459.6L926.287 1468.54L919.084 1475.75L909.396 1478.97H895.982V1432.52H884.308L881.078 1591H678.631V1557.97H687.325V1543.81V1527.66H676.396V1434.51H651.556L642.862 1430.04L628.703 1419.11L625.225 1408.68L623.486 1390.3H678.631V1324.22V1316.77H624.977V1302.86L629.2 1293.17L638.39 1283.23L646.091 1275.53L656.027 1273.79H678.631V1121.77Z" fill="#F5768F" fill-opacity="0.53"/>
<path id="Rectangle 181" d="M1945.48 2026.45H2028.69L2033.91 2017.01H2015.53V1851.58L2359.56 1850.59V1859.53H2540.4V1863.5H2627.34H2705.09V2040.61H2734.15V2224.93H2253.74V2246.04L2251.26 2256.97L2248.28 2261.44L2245.05 2267.15L2237.35 2275.1L2227.16 2281.07L2217.23 2282.56H2206.3V2224.93H1945.48V2026.45Z" fill="#F5768F" fill-opacity="0.53"/>
</g>
<path id="classrooms" d="M4165.74 1437.05L4178.9 1392.59L4228.33 1317.08L4243.24 1297.95L4263.11 1282.3L4288.94 1269.88L4317.26 1266.9L4345.08 1269.88L4369.43 1282.3L4387.93 1299.69L4406.44 1317.08L4439.97 1346.39L4530.64 1256.22L4722.41 1447.73L4791.46 1380.67L4759.17 1347.63L4770.35 1337.44L5013.78 1579.63L5286.28 1579.63L5286.28 2131.09L5234.61 2131.09L5013.78 2131.09L4774.07 2375.26L4564.19 2406.81L4493.15 2337.51L4564.19 2261.74L4554.26 2251.31L4402.48 2399.36L4389.57 2414.26L4372.92 2427.92L4350.32 2439.85L4325.23 2444.82L4292.94 2443.08L4268.1 2433.14L4248.48 2418.49L4175.45 2317.14L4221.15 2292.3L4213.2 2279.63L4211.46 2268.2L4211.46 2258.02L4217.43 2238.64L4225.87 2229.2L4234.32 2224.98L4267.11 2270.69L4314.55 2337.51L4327.47 2319.87L4295.42 2270.69L4259.9 2209.58L4227.86 2139.03L4209.23 2083.39L4194.82 2031.23L4181.9 1966.15L4176.44 1893.86L4176.44 1811.14L4181.9 1757.24L4190.58 1694.4L4195.57 1671.05L4203.76 1646.21L4215.94 1604.97L4228.33 1566.72L4263.11 1496.67L4327.96 1391.35L4310.82 1376.69L4263.11 1449.22L4220.16 1431.09L4216.16 1431.09L4207.96 1438.54L4190.58 1449.22L4174.93 1449.22L4162.03 1446.24L4165.74 1437.05Z" fill="#8F76F5" fill-opacity="0.53"/>
<path id="admin_offices" d="M2160.14 699L3271.21 699.5V1302.5L3309 1301V1375H3257.5V1435C3222.23 1429.08 3210.16 1418.01 3205 1382.5C3199.76 1417.27 3189.49 1429.68 3153.82 1435V1380.92H3046.99V1343.65H2992.71H2721.57L2724.27 1408.99H2746.13L2766.02 1422.91L2776.09 1440.8V1458.69H2724.27V1779.2H2691.61V1851H2366.44V1842.3H1997.07V1687.76H1945V1375.95L2028.75 1364.52V1181.41H2160.14V1055.5C2124.95 1053.06 2111.07 1045.17 2106 1009H2160.14V996.5H2098.5V959.5C2061.57 957.133 2048.11 948.519 2042.01 914.811V895.68L2049.87 699H2160.14Z" fill="#25FEC4" fill-opacity="0.65"/>
<path id="tech_ops_facilities" d="M3847.65 2022.08L3979.31 2023.82V2030.52H3926.89V2035.49V2044.93L3938.57 2061.08L3959.43 2070.52H3979.31V2222.29H3847.65V2022.08Z" fill="#A0ADDB"/>
<g id="centers">
<path id="Rectangle 172" d="M1400.24 2045.57L1441.47 2085.07L1453.89 2070.16L1486.93 2069.67V2026.69H1503.32V2082.34H1587.78V1971.8H1945.57V2646.7H1857.05V2595.04H1615.35H1380.09V2195.61H1368.44V2165.05L1380.09 2148.91L1336.89 2114.38L1344.35 2109.41L1351.8 2104.44L1362.48 2099.97H1371.67H1382.1L1391.05 2102.21L1405.95 2114.38L1398.25 2106.18L1393.78 2097.24L1388.56 2088.55L1387.57 2078.61L1387.82 2069.42L1390.05 2059.48L1393.78 2051.04L1400.24 2045.57Z" fill="#6A0F0F" fill-opacity="0.37"/>
<path id="Rectangle 174" d="M1380.36 1050.23H1945.73V1737.31H1685.4V1713.22L1606.16 1716.94V1613.36L1490.16 1611.62V1643.91H1452.4L1441.97 1628.51L1405.7 1664.03L1396.76 1657.82L1389.8 1641.43V1623.79L1395.02 1606.9L1405.7 1597.71L1387.32 1610.63H1366.95L1350.31 1604.42L1337.39 1595.23L1380.36 1559.46L1366.95 1540.08V1513.25H1380.36V1050.23Z" fill="#6A0F0F" fill-opacity="0.37"/>
</g>
<path id="storage" d="M3848.12 1391.36H3993.54V1589.73H3966.49V1544.41C3937.18 1549.87 3928.01 1560.65 3920.83 1589.73C3912.66 1556.94 3902.5 1545.94 3870.66 1544.41V1589.73H3848.12V1391.36Z" fill="#FF13B0" fill-opacity="0.73"/>
</g>
</g>
</svg>
