<svg width="5541" height="3586" viewBox="0 0 5541 3586" fill="none" xmlns="http://www.w3.org/2000/svg">
<g id="ASC Ground">
<path id="phd_suites" d="M570 2921.43H1059.02V2353.98H1231.62V2230.48C1231.62 2230.48 1279.74 2219.14 1294.82 2161.12V1602.08L1285.57 1030.66H845.939L839.986 922H577.861L570 2921.43Z" fill="#691F58" fill-opacity="0.73"/>
<g id="bathrooms">
<path id="Rectangle 52" d="M3348.95 731.047H3500.04V1005.23H3444.98L3449.05 1027.76L3470.6 1043.99L3487.12 1049.32H3500.04V1123.69L3470.6 1131.69L3454.08 1147.43L3444.98 1175.05H3500.04V1420.91H3348.95V731.047Z" fill="#76DBF5" fill-opacity="0.53"/>
<path id="Rectangle 3" d="M1430.56 1392.51H1525.61V1672.07H1426.98V1657C1389.85 1655.06 1379.25 1642.99 1371.72 1609.26H1426.98V1603.83H1457.84V1580.36H1410.33V1514.47H1430.56V1392.51Z" fill="#76DBF5" fill-opacity="0.53"/>
<path id="Rectangle 4" d="M1319.23 2324.05H1408.13V2272.93H1460.56V2244.35H1371.98L1376.05 2223.27L1390.42 2203.16L1406.7 2192.75H1428.72V2176.52H1520.69V2425.04H1319.23V2324.05Z" fill="#76DBF5" fill-opacity="0.53"/>
<path id="Rectangle 168" d="M1428.27 1882.42H1523.39V2027.85H1428.27V2017.91H1372.18L1374.62 2001.67L1387.79 1984.95L1406.32 1972.83H1428.27V1882.42Z" fill="#76DBF5" fill-opacity="0.53"/>
</g>
<g id="storage">
<path id="Rectangle 169" d="M1392.06 1852.44L1407.14 1839.36L1429.41 1837.34V1820.46L1524.43 1823.12L1525.81 1855.6L1464.78 1857.34L1462.45 1873.03H1429.41V1868.91H1420.55V1864.55H1392.06V1852.44Z" fill="#FF13B0" fill-opacity="0.73"/>
<path id="Rectangle 166" d="M4066.37 1747.61V1646.83V1649.38C4097.29 1657.02 4091.11 1665.24 4066.37 1649.38L4097.88 1646.83H4193.88L4198.43 1662.82L4204.65 1673L4217.82 1688.99L4238.17 1693.83H4247.99V1665.24H4266.66L4264.5 1679.54L4255.65 1711.27L4247.99 1747.61H4064.4H4066.37Z" fill="#FF13B0" fill-opacity="0.73"/>
<path id="Rectangle 508" d="M3904.76 2098.83H4039.32V2200.79H4011.46V2255.35C3978.22 2252.11 3967.29 2240.92 3964.41 2200.79H3904.76V2098.83Z" fill="#FF13B0" fill-opacity="0.73"/>
</g>
<g id="faculty_offices">
<path id="Vector 5" d="M1919.2 2639.59H2289.8V2315.69H2349.89V2370.2L2369.52 2366.81L2386.52 2354.46L2398.73 2335.07V2315.69H2466.24L2526.81 2188.02L2440.98 2143.33L2355.16 2098.63V1759.47L1968.52 1748.81V1899.01L1961.1 1912.82L1968.52 2098.63H1919.2V2639.59Z" fill="#F5768F" fill-opacity="0.53"/>
</g>
<g id="classrooms">
<path id="Vector 3" d="M2367.27 1753.3V2104.09L2556.21 2204.87L2567.78 2288.2C2591.12 2300.31 2624.15 2323.33 2624.15 2323.33L2734.04 2328.18V1528H2622.71L2563.58 1561.43L2571.96 1574.27L2544.43 1604.31V1637.01H2571.96L2367.27 1753.3Z" fill="#8F76F5" fill-opacity="0.53"/>
<g id="Vector 1">
<path d="M4367.5 1512.81L4406.52 1438.68L4507.79 1362.12L4466.85 1314.16L4546.81 1228.88L4419.45 1102.18V979.839H4967.68L5041.18 1056.39L5123.06 968.938L5211.64 1052.03L4868.33 1397.01L5123.06 1661.31H5403.64V2207.36H5123.06L4795.58 2536.38L4714.08 2455.26L4619.87 2547.13L4608.31 2535.92L4648.77 2497.66L4643.45 2492.22L4606.34 2526.79C4588.78 2508.74 4589.44 2492.44 4608.31 2461.01C4586.85 2482.16 4562.22 2488 4545.42 2463.9L4654.89 2342.75L4645.88 2334.66L4511.43 2463.9C4437.26 2550.68 4363.03 2555.16 4303 2483.78L4251.21 2405.64L4258.15 2399.86L4233.41 2356.85C4258.61 2346.21 4271.96 2349.36 4294.1 2374.77C4284.87 2348.52 4284.72 2334.63 4308.32 2313.62L4331.33 2352.92H4333.98H4343.35L4389.94 2425.17L4409.36 2407.14L4339.49 2281.74L4305.02 2192.1L4277.01 2111.43L4261.92 1969.47V1910.35V1816.36L4277.01 1740.05L4305.02 1659.13L4339.49 1561.02L4367.5 1512.81Z" fill="#8F76F5" fill-opacity="0.53"/>
<path d="M4343.35 2352.92C4317.57 2376.97 4466.58 2414.54 4343.35 2352.92ZM4343.35 2352.92L4389.94 2425.17L4409.36 2407.14L4339.49 2281.74L4305.02 2192.1L4277.01 2111.43L4261.92 1969.47V1910.35V1816.36L4277.01 1740.05L4305.02 1659.13L4339.49 1561.02L4367.5 1512.81L4406.52 1438.68L4507.79 1362.12L4466.85 1314.16L4546.81 1228.88L4419.45 1102.18V979.839H4967.68L5041.18 1056.39L5123.06 968.938L5211.64 1052.03L4868.33 1397.01L5123.06 1661.31H5403.64V2207.36H5123.06L4795.58 2536.38L4714.08 2455.26L4900.89 2292.64L4892.03 2281.74L4619.87 2547.13L4608.31 2535.92L4648.77 2497.66L4643.45 2492.22L4606.34 2526.79C4588.78 2508.74 4589.44 2492.44 4608.31 2461.01C4586.85 2482.16 4562.22 2488 4545.42 2463.9L4654.89 2342.75M4343.35 2352.92H4333.98H4331.33L4308.32 2313.62C4284.72 2334.63 4284.87 2348.52 4294.1 2374.77C4271.96 2349.36 4258.61 2346.21 4233.41 2356.85L4258.15 2399.86L4251.21 2405.64L4303 2483.78C4363.03 2555.16 4437.26 2550.68 4511.43 2463.9L4645.88 2334.66L4654.89 2342.75M4654.89 2342.75C4726.68 2278.75 4625.45 2371.9 4654.89 2342.75Z" stroke="black"/>
</g>
<path id="Vector 7" d="M1919.2 1737.8H2284.77V1516.62H2353.72C2354.87 1481.93 2313.34 1469.7 2292.43 1467.93V1377.08H2273.04V1348.25H2292.43V1213.8H1958.23V1254.74H1949.13V1412.69H1919.2V1737.8Z" fill="#8F76F5" fill-opacity="0.53"/>
</g>
<g id="admin_offices">
<path id="Rectangle 22" d="M3068.91 1532.4L3184.24 1532.39L3295.43 1532.39L3295.43 1484.14C3325.55 1492.01 3334.51 1503.25 3339.82 1532.39L3459.82 1532.4L3459.82 1932.31L3065.5 1932.31L3068.91 1532.4Z" fill="#25FEC4" fill-opacity="0.65"/>
<path id="Rectangle 63" d="M3074.36 1921.75L3669.68 1926.94L3666.39 2313.34L3338.71 2313.3L3338.71 2367.95L3320.79 2365.77L3310.86 2359.71L3300.45 2350.99L3292.21 2335L3290.51 2316.83L3288.34 2333.06L3277.92 2350.99L3262.67 2362.61L3242.08 2365.76L3236.99 2308.16L3071.07 2308.14L3074.36 1921.75Z" fill="#25FEC4" fill-opacity="0.65"/>
<path id="Rectangle 167" d="M2740.99 2214.4L2804.44 2214.4L2804.44 2095.43L3063.71 2095.43L3063.71 2250.5L3030.19 2265.03L3020.14 2275.69L3014.63 2300.16L3046.47 2300.16L3063.71 2300.16L3063.71 2310.09L2740.99 2308.16L2740.99 2214.4Z" fill="#25FEC4" fill-opacity="0.65"/>
<path id="Vector 8" d="M3331.33 1368.25V1442.63H2885.56V1383.27L2864.25 1388.6L2848.69 1401.2L2840.07 1417.43L2838.16 1442.63H2375.87V1199.16C2346.38 1205.16 2325.92 1163.54 2319.37 1141.98H2267.9V1015.28H2213.79C2194.07 985.435 2241.65 969.737 2267.9 965.618V809.119C2236.49 811.251 2218.74 775.122 2213.79 756.791H2267.9V709.551H3306.67V1368.25H3331.33Z" fill="#25FEC4" fill-opacity="0.65"/>
</g>
<g id="tech_ops_facilities">
<path id="Rectangle 510" d="M2296.98 1550.89H2344.15V1539.1H2353.86V1587.65C2382.5 1583.49 2390.6 1572.32 2404.96 1539.1H2458.59L2519.17 1662.56L2464.37 1692.97L2347.85 1754.7H2296.98V1550.89Z" fill="#1E3CA8" fill-opacity="0.42"/>
<path id="Rectangle 513" d="M3461.09 1651.02V1702.69C3498.29 1688.56 3511.35 1677.87 3512.76 1651.02H3676.33V1917.36H3461.09V1651.02Z" fill="#1E3CA8" fill-opacity="0.42"/>
</g>
<g id="mep">
<line id="Line 9" x1="3996.37" y1="1735.57" x2="4058.56" y2="1650.03" stroke="black"/>
<line id="Line 10" x1="4003.77" y1="1736.96" x2="4058.56" y2="1661.35" stroke="black"/>
<line id="Line 17" x1="3994.75" y1="1724.02" x2="4049.55" y2="1648.42" stroke="black"/>
<line id="Line 11" x1="4013.01" y1="1737.19" x2="4058.56" y2="1673.15" stroke="black"/>
<line id="Line 18" x1="3993.59" y1="1712.46" x2="4039.14" y2="1648.41" stroke="black"/>
<line id="Line 12" x1="4022.26" y1="1737.2" x2="4059.95" y2="1683.79" stroke="black"/>
<line id="Line 20" x1="3993.59" y1="1701.82" x2="4031.28" y2="1648.41" stroke="black"/>
<line id="Line 13" x1="4031.27" y1="1737.43" x2="4058.55" y2="1697.2" stroke="black"/>
<line id="Line 19" x1="3994.74" y1="1690.27" x2="4022.02" y2="1650.04" stroke="black"/>
<line id="Line 14" x1="4041.21" y1="1737.44" x2="4058.55" y2="1710.62" stroke="black"/>
<line id="Line 21" x1="3995.2" y1="1675.26" x2="4012.54" y2="1648.44" stroke="black"/>
<line id="Line 15" x1="4049.99" y1="1737.21" x2="4058.55" y2="1724.03" stroke="black"/>
<line id="Line 16" x1="4049.99" y1="1737.21" x2="4058.55" y2="1724.03" stroke="black"/>
<line id="Line 22" x1="3994.74" y1="1661.38" x2="4003.29" y2="1648.2" stroke="black"/>
</g>
<path id="centers" d="M2733.96 1539.1H2956.37V1483.5C2992.98 1488.54 3005.07 1501.05 3012.09 1539.1H3058.1V1754.58H2733.96V1539.1Z" fill="#6A0F0F" fill-opacity="0.37"/>
<g id="tech_infrastructure">
<path id="rectangle" d="M3988.92 1758.05L4242.55 1762.45C4221.11 1889.38 4223.75 1959.71 4242.55 2084.4L4245.9 2100.23L4267.63 2180.34L4251.1 2186.12V2201.5H4045.79V2097.69H4130.88V2025.21H4010.3V1917.01H4104.06V1901.75H4077.35V1846.26H3988.92V1758.05Z" fill="#F5EE76" fill-opacity="0.53"/>
<rect id="Rectangle 512" x="2740.2" y="1754.59" width="129.935" height="326.456" fill="#F5EE76" fill-opacity="0.53"/>
</g>
</g>
</svg>
