<svg width="5541" height="3585" viewBox="0 0 5541 3585" fill="none" xmlns="http://www.w3.org/2000/svg">
<g id="ASC Third Floor">
<g id="colorcoded">
<g id="admin_offices">
<path id="Rectangle 29" d="M602.742 958.102H1137.77V1045.15H1126.25V1194.07H1093.43V1441.14H1145.54L1148.29 1463.38L1160.07 1480.79L1180.11 1489.91L1200.4 1490.46V1535.18H840.921V1482.72H602.742V958.102Z" fill="#25FEC4" fill-opacity="0.65"/>
<path id="Rectangle 30" d="M611.527 1494.26H843.121V1547H1334.45V1686.83H1286.99V1789.16H1334.45L1332.48 1805.61L1323.13 1821.1L1305.67 1831.5L1286.99 1835.37L1305.67 1837.06L1322.15 1846.74L1332.48 1861.74L1334.45 1877.47H1286.99V1978.35H1339.12V2124.22H1302.79H843.501V2141.04H611.527V1494.26Z" fill="#25FEC4" fill-opacity="0.65"/>
<path id="Rectangle 31" d="M614.764 2183.11H849.313V2140.93H1270.81V2174.17L1253.6 2175.91L1240.32 2186.83L1229.5 2201.47V2221.31H1101.87V2426.99H1139.24V2569.23H1143.75V2623.68H1287.44C1286.19 2606.11 1287.78 2597.48 1293.8 2583.8C1304.19 2572.79 1310.54 2567.56 1326.06 2565.76V2719.6V2806.1H1146.13V2719.6H614.764V2183.11Z" fill="#25FEC4" fill-opacity="0.65"/>
<path id="Rectangle 66" d="M2904.57 2075.91L3098.1 2075.9V2032.38C3123.13 2036.79 3135.09 2045.21 3139.37 2075.91H3403.63V2039.89C3425.2 2043.06 3437.39 2052.26 3437.39 2075.91H3761.3V2265.31H3621.08V2370.33H2904.57V2075.91Z" fill="#25FEC4" fill-opacity="0.65"/>
<path id="Rectangle 67" d="M3248.26 1398.77H3387.92V1821.96H3217.17V1818.75H3257.17C3251.3 1788.95 3242.05 1780.49 3217.17 1777.02V1669.97H3258.44C3255.37 1640.92 3245.5 1633.63 3217.17 1626.27V1603.04H3233.01V1450.1H3248.26V1398.77Z" fill="#25FEC4" fill-opacity="0.65"/>
<path id="Rectangle 199" d="M2910.54 1680.95H3105.5V1776.9C3078.85 1781.21 3069.36 1789.9 3062.84 1817.13H3105.5V1825.34H2910.54V1680.95Z" fill="#25FEC4" fill-opacity="0.65"/>
</g>
<g id="classrooms">
<path id="Rectangle 65" d="M4422.42 1255.43H4906.79V1589.52L4463.73 1586.3L4462.5 1572.97L4455.37 1559.65L4449.71 1552.75L4441.35 1545.63L4432.01 1539.2L4422.42 1536.21V1255.43Z" fill="#8F76F5" fill-opacity="0.53"/>
<path id="Rectangle 21" d="M4426.24 2126.25C4452.21 2120.66 4460.84 2110.68 4468.43 2083.82H4900.08V2414.9L4426.24 2412.48V2126.25Z" fill="#8F76F5" fill-opacity="0.53"/>
</g>
<path id="conference_room" d="M4477.45 1594.37H4953.65V2083.85H4479.43V2073.26H4520.48V2062.84L4516.79 2052.67L4513.84 2045.47L4507.45 2039.52L4502.28 2033.07L4494.42 2030.09L4479.43 2027.61V1648.52L4494.42 1644.05L4507.2 1633.13L4519.5 1616.01L4521.22 1608.08V1599.14H4477.45V1594.37Z" fill="#3C74E9" fill-opacity="0.33"/>
<path id="storage" d="M2613.5 1542.77L2630.04 1540.53L2645.78 1527.38L2656.11 1513.49L2658.57 1495.88H2896.37V1677.48H2613.5V1542.77Z" fill="#FF13B0" fill-opacity="0.73"/>
<g id="faculty_offices">
<path id="Rectangle 191" d="M1882.67 2001.4H1927.18V1632.54H1882.67V1497.49H2605.31H2657.66L2655.94 1514.16L2643.65 1529.11L2630.12 1539.89H2607.01L2605.31 1978.61H2515.06V2080.81H2359.66V2051.37V2012.92C2331.91 2018.91 2321.18 2028.14 2313.2 2058.14L1882.67 2055.57V2001.4Z" fill="#F5768F" fill-opacity="0.53"/>
<path id="Rectangle 194" d="M2907.36 1397.61H3238.9V1441.66H3225.72V1590.78H3213.47V1627.77C3241.25 1630.06 3251.27 1638.62 3258.32 1667.89H3213.47L3215.55 1778.17C3243.96 1780.73 3252.57 1790.53 3257.63 1819.79H3215.55V1984.63H2907.36V1833.35L3105.96 1827.19V1817.24H3062.96C3069.05 1792.94 3076.96 1784.02 3100.72 1778.17V1672.76H2907.36V1397.61Z" fill="#F5768F" fill-opacity="0.53"/>
<rect id="Rectangle 196" x="3210.88" y="1822.77" width="186.044" height="161.935" fill="#F5768F" fill-opacity="0.53"/>
<path id="Rectangle 192" d="M1340.39 958.793H1523.2V1080.75H1551.48L1552.63 1194.97H1565.47L1564.42 1150.69C1590.82 1157.21 1600.87 1166.33 1605.81 1194.97H1677.94L1682.8 958.793H1919.09V1091.73V1154.04V1184.91H1875.62L1816.2 1185.37V1193.69H1721.53V1279.59V1300.51H1770.19H1780.02C1792.24 1301.13 1798.04 1303.53 1806.72 1311.03C1814.82 1320.33 1817.57 1327.3 1818.86 1343.17H1849.03V1346.17H1862.21V1535.64H1584.66V1505.24H1527.32V1536.33H1487.55V1493.56C1467.01 1495.02 1458.25 1492.11 1446.51 1481.77C1435.23 1471.78 1434.52 1465.2 1435.41 1453.1H1486.39V1202.59H1499.69V1193.12H1353.8V1044.11H1337.27V1003.76H1340.39V958.793Z" fill="#F5768F" fill-opacity="0.53"/>
<path id="Rectangle 193" d="M1338.77 2623.45H1354.11V2223.17H1385.34V2172.8L1401.81 2175.53L1416.32 2186.95L1426.9 2204.81L1428.02 2219.54H1436.24V2198.11L1445.09 2183.72L1462.31 2172.8H1486.41V2130.88H1865.36V2481.95H1913.42L1912.33 2706.56H1879.67H1338.77V2623.45Z" fill="#F5768F" fill-opacity="0.53"/>
<path id="Rectangle 195" d="M3889.62 1251.49H4411.79L4417.57 1585.12H4181.01V1637.07H4169.95L4160.11 1632.6L4149.29 1623.92L4143.88 1617.1L4138.47 1610.27L4135.27 1584.19H3887.08L3889.62 1251.49Z" fill="#F5768F" fill-opacity="0.53"/>
<path id="Rectangle 197" d="M3885.34 2079.09H4135.39V2060.24L4142.13 2051.56L4148.76 2044.89L4152.79 2038.7L4161.8 2033.94L4169.62 2031.8H4179.57V2074.41L4419.65 2079.09V2416.29H3885.34V2079.09Z" fill="#F5768F" fill-opacity="0.53"/>
<path id="Rectangle 198" d="M3933.43 1683.61H4001.78V1703.71L4004.22 1712.98L4011.05 1722.75L4022.26 1731.02L4031.04 1736.78H4043.23V1683.61H4371.1V1984.63H4278.29V1938.45H4267.32L4257.32 1942.21L4248.3 1947.47L4244.15 1954.49L4234.15 1968.77L4232.45 1977.79V1984.63H3933.43V1683.61Z" fill="#F5768F" fill-opacity="0.53"/>
</g>
<g id="centers">
<path id="Rectangle 215" d="M1356 1202.02H1487.43V1249.41H1479.34V1374.15H1465.24V1440.97H1382.93V1419.7H1356V1329.76H1368.48V1310.45H1356V1202.02Z" fill="#6A0F0F" fill-opacity="0.37"/>
<path id="Rectangle 216" d="M1537.95 957.871H1675.4V1193H1606.39C1600.93 1163.88 1590.12 1156.71 1565.35 1150.46L1566.27 1193H1558.41V1070.93H1537.95V957.871Z" fill="#6A0F0F" fill-opacity="0.37"/>
<path id="Rectangle 217" d="M1732.28 1200.93H1818.86V1247.22H1863.83V1339.47H1821.06C1820.43 1327.7 1817.93 1321.24 1807.65 1310.1C1799.1 1302.44 1793.04 1300.31 1780.37 1299.59V1291.03H1732.28V1200.93Z" fill="#6A0F0F" fill-opacity="0.37"/>
</g>
<line id="Line 7" x1="4477.44" y1="1835.05" x2="4949.33" y2="1834.59" stroke="#666666" stroke-width="6"/>
<line id="Line 8" x1="4750.27" y1="1823.96" x2="5074.18" y2="1823.96" stroke="black" stroke-width="6"/>
</g>
</g>
</svg>
